/* XPM */
static char *cross[] = {
/* width height num_colors chars_per_pixel */
"    35    40        2            1",
/* colors */
". c #ffffff",
"# c #fd281d",
/* pixels */
"...................................",
"........................####.......",
".......................######......",
"......................########.....",
".....................#########.....",
".....................#########.....",
"......####..........##########.....",
".....######.........##########.....",
"....########.......##########......",
"....#########......##########......",
"....#########.....##########.......",
"....##########...###########.......",
"....###########..##########........",
".....##########.###########........",
".....#####################.........",
"......###################..........",
".......##################..........",
".......#################...........",
"........###############............",
"........###############............",
".........#############.............",
"..........###########..............",
"..........############.............",
".........###############...........",
".........################..........",
"........###################........",
".......#####################.......",
".......########################....",
"......##########################...",
"....############.################..",
"...############...###############..",
"..#############.....#############..",
".#############.......############..",
".############..........#########...",
".###########............#######....",
".##########........................",
"..########.........................",
"...#####...........................",
"...................................",
"..................................."
};
