/* XPM */
static char *not[] = {
/* width height num_colors chars_per_pixel */
"    37    39        2            1",
/* colors */
". c #ffffff",
"# c #3312d9",
/* pixels */
".....................................",
".....................................",
".....................................",
".............####.#######............",
"..........################...........",
".........##################..........",
"........####################.........",
".......######################........",
"......########################.......",
".....##########################......",
"....############################.....",
"....############################.....",
"...###########........##########.....",
"...##########..........#########.....",
"...#########............#########....",
"...#########............#########....",
"...#########............##########...",
"...#########............##########...",
"...#########.............#########...",
"...#########.............#########...",
"....########..............########...",
"....########..............########...",
"....#########.............########...",
"....#########.............########...",
"....##########...........#########...",
"....##########...........#########...",
".....###########........##########...",
".....#############..##############...",
"......###########################....",
"......###########################....",
".......#########################.....",
"........#######################......",
".........#####################.......",
"..........###################........",
"............################.........",
"..............##########.............",
".....................................",
".....................................",
"....................................."
};
