/* XPM */
static char * query_xpm[] = {
"48 48 2 1",
" 	c None",
".	c #FF0000",
"                                                ",
"                                                ",
"                                                ",
"                                                ",
"                                                ",
"                                                ",
"                                                ",
"                                                ",
"                                                ",
"                   .......                      ",
"               ...............                  ",
"            .....................               ",
"          .........................             ",
"         ...........................            ",
"        ...........       ...........           ",
"       ...........         ...........          ",
"       ...........         ............         ",
"       ...........         ............         ",
"       ...........         ............         ",
"        ..........         ............         ",
"        ..........         ............         ",
"          .........       ............          ",
"             ....        ............           ",
"                        ............            ",
"                       ..........               ",
"                       .......                  ",
"                       ....                     ",
"                       ...                      ",
"                       ...                      ",
"                        .                       ",
"                                                ",
"                                                ",
"                    ......                      ",
"                  ..........                    ",
"                 ............                   ",
"                ..............                  ",
"                ..............                  ",
"                 ............                   ",
"                  ..........                    ",
"                   ........                     ",
"                     ....                       ",
"                                                ",
"                                                ",
"                                                ",
"                                                ",
"                                                ",
"                                                ",
"                                                "};
