/* XPM */
static char * monolisa2_xpm[] = {
"48 48 24 1",
" 	c None",
".	c #38699A",
"+	c #497DAE",
"@	c #558ABA",
"#	c #6596C7",
"$	c #5186B6",
"%	c #4175A6",
"&	c #306192",
"*	c #699ACB",
"=	c #79A6D3",
"-	c #9ABEE3",
";	c #B6D3EF",
">	c #AACBEB",
",	c #A6C7E7",
"'	c #86B2DB",
")	c #C7DBF3",
"!	c #2C5D8A",
"~	c #285582",
"{	c #204D75",
"]	c #1C456D",
"^	c #143451",
"/	c #82AEDB",
"(	c #143859",
"_	c #D7E7F7",
".++@+#+$@$$++$+%$@$$$%%...&.%%+%++%..%%%+%%.&+..",
"%%%++$$$++++%++%@%$%%+.+%%&&.%%%%%.&&%.%.%.&%.&.",
"@+%..&++%%+%+%%++%%+...%%&.%%%+%...&..%%++.%%.%&",
"+%%@%%+.+%%+.%%%%%.+.%@@**@@+.+&%%.%%%.++++.%%..",
"++@%%%%%.+%%+.%..%.@=-;;;;>>,'@%....%&.%%%%.%&&.",
"%+%%%.&..&.%%.%...=;;,>););;,,>,@%..&%%@.+....&.",
".%..%!.....&..&%%';>,');;;;;)>>,>#..&&.%%.%&!!!!",
"..!.&&&%%..%.!!!';>>',;>;;)););>>;*..&&..%.%&!!&",
"+%.&..&~&...&!!#;;,=@#='>;);;);;,>>@.&.&%...&&&&",
"..%&&&..&.&&!{.>'+!~{!!+$=-;;;;>>>>,+.&!&&&%&&&&",
"+.&.&.&.&.&~{!*,+!]^^^]~!+='>;);>>,>/!!~!&!&&.!&",
"%.%&&.&&.&!{{%)*!(^^^^^^!!@/,;;))>,>;%!&!!!!&!!!",
"..&&&!!{!~{^{-,+{^((^(^^]&$*'>;;;)>;;=!&.&!!!!~!",
"&~&!!!!!!!{(%-,+{^(^^(^]{.$#=,>;))););.+%....!!!",
"~{~!.!!!.!~.=,/%]^^((^({~!.+#*-;;))));*#++$+..!.",
".~!!~!!~~~~%,,=!]((((^(^{{!!%#'>>;;);)'*###$.+.$",
"@+~{^!^!^!(#,,=.]](((({~~!!.+#-,>;;)))-==*#@@$+@",
"@$@+!~!^!(.*,,-..%&]{~@@@$$#*=->,,;;;;--/=#@#+$#",
"*-#**!~!^!$-,,--##*.~@-=@=-,;/'>>>;;;;>-''/*####",
"-/=**!^!!!%-,,,;@)-${==$$)/-#@/;>>;);)>---'***/-",
"-//**..#@%+,,)#%%+@!{=@!!+#%!+=>>>;;))>'-''-=/-=",
"-,-/-#==,*#,;)#{{!~!{$%~~{{{!$/,,,,>;>;,--/#-'//",
"=-,--)-/---/))=!]]{]~&$^]^]!.@/,-,,>,>>'''''/---",
"-,,,,,,-,,,),,/!]]{]{+!~^]{!@#->,-,-,>>/**##$$#@",
",-,)--,),),,)),!~{!]{%$]~{~%#--,,,,>,>>,,-/=/*#@",
"-,-',,,,);),,,)@!~%{.=#{]{.$#=,>,,-,,>,,,,,'/-''",
"-,->,,,,;);;,;)=+!~+-)=!~.+#=',>,->>,>>>,,,,,-,-",
"-,,,,,;;,,;;;),-$@~!#$$$$%$#*',,-,-',>>,--------",
",,,,>,),;;);,,)/@+@+$===%%+@--,;-,>>,,,,------->",
">,>,;;,;,>;>,;,)#%!!$$#$%.+==-,>,,,,>,,,,--'-'-/",
",,>,,>;,,,>);,,),#!&$@$$+@#-/,;>>>>,,>>>,-,-'-'-",
";,,'----//>-),;,,)@~({%+#*--,,>,>>,,>,>>,''-'''-",
">>,>,,,--',),,,;),)%&%$#----,;;;>;,,,>;>>---'-'-",
">>>,,,'=@#-;>,;,))))=----,-,;,,;>>,,>>;;>--,-'-'",
"),-/'''/##/,,;,;))))),-)-,,;-;,,>>>>;>;;>-,,-',,",
"///#/$@@##=,);,;;))))-,-),;,,--,>;);;;;);,--,-'-",
"'/=$@@@/@==-,,;;;_;))#*--,,-///->;,;;;;;;-,-=---",
"'=/@*/@@/*/-;,;;))),)-$@#=///==/,;;;;);;;,-''/'=",
",',/@''===',>>,;))_);'$@$##*##@#/,;,;;,));;>>>>-",
"->/;),-,>;>;));)));,-=$++$@@$+$#=,,;,,,;;;);,,>,",
"-,';;);;;);;;>;;;;;=+!..%%+....%*-,--,,>;;);>;>>",
"/-,;)_);>;);>;>;,/#+!{!{!!!!!!!%@=--=,>>>>;,>'/=",
"-/-;);_)>;;>;;>>=+~!{{{~~{{^~~!.#-='=->;;>;;;>-=",
"/',))>;;,>;;;;,;%!.^{{^^{{^~^~!.$='-',;;,;;;;>,-",
"/,,>>>;>,,>;,,-=!{]^^^~^~^~^!^.!@-='-,>,,>>;)>,-",
"-'-,>,>,,;;>,,'$!~^^^]^{~^^{^~!.*==-->>;>-,,>;>,",
"=--,-/>>;;;;-/=%^^~^^^{^]{^{{^!.*-='';>,/',->;;>",
"*= ,'->));;,'*@!^]{^^{^^^^^{^!!.#='--'====='->;)"};
